<svg xmlns="http://www.w3.org/2000/svg" xmlns:xlink="http://www.w3.org/1999/xlink" width="1920" height="783.002" viewBox="0 0 1920 783.002"><defs><clipPath id="a"><rect width="1920" height="783.002" fill="none"/></clipPath></defs><g transform="translate(0 -40.048)"><rect width="1920" height="783.002" transform="translate(0 40.048)" fill="#1d1d1d"/><g transform="translate(0 40.048)"><g clip-path="url(#a)"><path d="M976.479,443.1C920.741,153.367,668.462-41.627,413.158,7.6S-3.767,331.693,52.111,621.494s308.158,484.8,563.462,435.564S1032.534,732.97,976.479,443.1M526.849,955.956c-183.565-24.4-271.761-327.851-232.587-358.41,38.366-30,194.045,206.353,393.435,174.809,103.7-16.387,160.356-95.967,168.515-87,14.523,15.965-143.125,295.393-329.363,270.6" transform="translate(103.346 -140.83)" fill="#303030"/></g></g></g></svg>